<!-- RED TOWER -->
<svg xmlns="http://www.w3.org/2000/svg" xmlns:xlink="http://www.w3.org/1999/xlink" version="1.1"
  preserveAspectRatio="none" x="0px" y="0px" viewBox="-94.75 -129.5 231 197.4">
  <defs>
    <g id="Layer0_27134_FILL">
      <path fill="#E74C3C" stroke="none"
        d=" M4 17 12 17 16 9 4 17M-12 17-4 17-16 9-12 17M4-15-4-15-20-7-20 9-16 9 16 9 20 9 20-7 4-15Z" />

      <path fill="#D24536" stroke="none"
        d=" M16 9-16 9-4 17 4 17 16 9M20-7 14-13 12-15 4-15 20-7M-4-15-12-15-14-13-20-7-4-15Z" />

      <path fill="#AF392D" stroke="none" d="M-4.5-19-4.5-36-7.5-36-7.5-19-4.5-19M7.5-36 4.5-36 4.5-19 7.5-19 7.5-36Z" />

      <path fill="#ADADAD" stroke="none"
        d="M22-7Q22-7.9 21.5-8.4L14-15.9 14-13 20-7 20 9 16 9 12 17 4 17-4 17-12 17-16 9-20 9-20-7-14-13-14-15.9-21.4-8.4Q-22-7.9-22-7L-22 9Q-22 9.9-21.4 10.5-20.8 11-20 11L-17.2 11-13.8 17.9Q-13.5 18.4-13 18.7-12.5 19-12 19L12 19Q12.5 19 13 18.7 13.5 18.4 13.8 17.9L17.3 11 20 11Q20.8 11 21.5 10.5 22 9.9 22 9L22-7Z" />

      <path fill="#9F9F9F" stroke="none"
        d="M-7.5-36-10-36-10-19-7.5-19-7.5-36M-2-36-4.5-36-4.5-19-2-19-2-36M4.5-19 4.5-36 2-36 2-19 4.5-19M10-36 7.5-36 7.5-19 10-19 10-36" />

      <path fill="#939393" stroke="none"
        d="M7.5-19 4.5-19 2-19-2-19-4.5-19-7.5-19-10-19-12-19-12-15-4-15 4-15 12-15 12-19 10-19 7.5-19Z" />

      <path fill="#727272" stroke="none"
        d="M7.5-36 10-36 10-19 12-19 12-15 14-13 14-15.9 14-19Q14-19.9 13.5-20.4 12.8-21 12-21L12-36Q12-36.9 11.5-37.4 10.8-38 10-38L2-38Q1.2-38 .6-37.4 0-36.9 0-36.1 0-36.9-.5-37.4-1.2-38-2-38L-10-38Q-10.8-38-11.4-37.4-12-36.9-12-36L-12-21Q-12.8-21-13.4-20.4-14-19.9-14-19L-14-15.9-14-13-12-15-12-19-10-19-10-36-7.5-36-4.5-36-2-36-2-19 2-19 2-36 4.5-36 7.5-36Z" />
    </g>
  </defs>
  <g transform="matrix( 1, 0, 0, 1, 0,0) ">
    <use xlink:href="#Layer0_27134_FILL" />
  </g>
</svg>