<?xml version="1.0" encoding="utf-8"?>
<svg viewBox="0 0 47 47" width="16" height="17" xmlns="http://www.w3.org/2000/svg">
  <!-- <svg viewBox="0 0 98.431 90.18" width="142" height="142" xmlns="http://www.w3.org/2000/svg"> -->


  <g>
    <path fill="#db640e" stroke="none"
      d="M 5.839 5.131 C 5.406 5.565 4.989 6.015 4.589 6.481 C 4.356 6.748 4.139 7.031 3.939 7.331 C 2.506 9.231 1.506 11.348 0.939 13.681 C 0.673 14.648 0.489 15.681 0.389 16.781 C 0.389 16.848 0.389 16.915 0.389 16.981 C 0.323 17.415 0.289 17.865 0.289 18.331 C 0.323 20.565 0.673 22.631 1.339 24.531 C 1.373 24.631 1.423 24.731 1.489 24.831 C 1.823 25.731 2.223 26.598 2.689 27.431 C 3.223 28.365 3.856 29.265 4.589 30.131 C 5.123 30.765 5.689 31.348 6.289 31.881 C 6.456 32.015 6.623 32.165 6.789 32.331 C 7.923 33.331 9.156 34.131 10.489 34.731 C 11.989 35.465 13.589 35.948 15.289 36.181 C 15.723 36.248 16.156 36.298 16.589 36.331 C 17.156 36.331 17.723 36.331 18.289 36.331 C 18.323 36.331 18.373 36.331 18.439 36.331 C 18.673 36.331 18.923 36.331 19.189 36.331 C 21.123 36.298 22.939 35.965 24.639 35.331 C 25.139 35.165 25.623 34.965 26.089 34.731 C 27.356 34.131 28.539 33.381 29.639 32.481 C 30.206 32.015 30.756 31.498 31.289 30.931 C 31.523 30.665 31.756 30.398 31.989 30.131 C 32.089 30.031 32.189 29.931 32.289 29.831 C 32.389 29.698 32.489 29.581 32.589 29.481 C 34.456 26.981 35.623 24.165 36.089 21.031 C 36.189 20.165 36.256 19.265 36.289 18.331 C 36.256 16.765 36.073 15.298 35.739 13.931 C 35.673 13.598 35.589 13.265 35.489 12.931 C 35.089 11.598 34.556 10.348 33.889 9.181 C 33.323 8.215 32.689 7.315 31.989 6.481 C 30.689 4.948 29.239 3.698 27.639 2.731 C 27.139 2.398 26.623 2.115 26.089 1.881 C 24.356 1.048 22.506 0.548 20.539 0.381 C 19.806 0.315 19.056 0.298 18.289 0.331 C 15.423 0.231 12.823 0.748 10.489 1.881 C 10.123 2.048 9.789 2.231 9.489 2.431 C 8.156 3.131 6.939 4.031 5.839 5.131 M 6.439 8.081 C 6.473 8.048 6.506 8.031 6.539 8.031 C 6.839 7.631 7.139 7.281 7.439 6.981 C 7.673 6.715 7.906 6.481 8.139 6.281 C 8.873 5.615 9.656 5.048 10.489 4.581 C 12.123 3.648 13.906 3.065 15.839 2.831 C 16.273 2.765 16.739 2.715 17.239 2.681 C 17.573 2.681 17.923 2.681 18.289 2.681 C 19.589 2.648 20.839 2.765 22.039 3.031 C 23.473 3.331 24.823 3.848 26.089 4.581 C 26.223 4.648 26.339 4.715 26.439 4.781 C 27.806 5.615 29.039 6.715 30.139 8.081 C 31.739 9.915 32.823 12.015 33.389 14.381 C 33.689 15.615 33.856 16.931 33.889 18.331 C 33.889 18.398 33.889 18.465 33.889 18.531 C 33.889 18.831 33.873 19.148 33.839 19.481 C 33.806 19.915 33.756 20.348 33.689 20.781 C 33.256 23.715 32.089 26.298 30.189 28.531 L 30.139 28.581 C 28.939 30.015 27.589 31.165 26.089 32.031 C 25.489 32.398 24.856 32.715 24.189 32.981 C 24.023 33.048 23.856 33.115 23.689 33.181 C 22.589 33.515 21.439 33.748 20.239 33.881 C 19.606 33.915 18.956 33.931 18.289 33.931 C 15.389 33.998 12.789 33.365 10.489 32.031 C 9.723 31.598 9.006 31.081 8.339 30.481 C 7.673 29.915 7.039 29.281 6.439 28.581 C 5.473 27.481 4.706 26.281 4.139 24.981 C 3.206 22.981 2.723 20.765 2.689 18.331 C 2.689 18.065 2.706 17.815 2.739 17.581 C 2.773 16.815 2.856 16.081 2.989 15.381 C 2.989 15.248 3.006 15.115 3.039 14.981 C 3.573 12.381 4.706 10.081 6.439 8.081 Z" />
    <g transform="matrix(1, 0, 0, 1, -205.710876, -333.668915)">
      <path fill="#9a5c1d" stroke="none"
        d="M 212.25 341.7 C 212.217 341.7 212.183 341.717 212.15 341.75 C 210.417 343.75 209.283 346.05 208.75 348.65 C 208.717 348.783 208.7 348.917 208.7 349.05 C 208.567 349.75 208.483 350.483 208.45 351.25 C 208.417 351.483 208.4 351.733 208.4 352 C 208.433 354.433 208.917 356.65 209.85 358.65 C 210.417 359.95 211.183 361.15 212.15 362.25 C 212.75 362.95 213.383 363.583 214.05 364.15 C 214.717 364.75 215.433 365.267 216.2 365.7 C 218.5 367.033 221.1 367.667 224 367.6 C 224.667 367.6 225.317 367.583 225.95 367.55 C 227.15 367.417 228.3 367.183 229.4 366.85 C 229.567 366.783 229.733 366.717 229.9 366.65 C 230.567 366.383 231.2 366.067 231.8 365.7 C 233.3 364.833 234.65 363.683 235.85 362.25 L 235.9 362.2 C 237.8 359.967 238.967 357.383 239.4 354.45 C 239.467 354.017 239.517 353.583 239.55 353.15 C 239.583 352.817 239.6 352.5 239.6 352.2 C 239.6 352.133 239.6 352.067 239.6 352 C 239.567 350.6 239.4 349.283 239.1 348.05 C 238.533 345.683 237.45 343.583 235.85 341.75 C 234.75 340.383 233.517 339.283 232.15 338.45 C 232.05 338.383 231.933 338.317 231.8 338.25 C 230.533 337.517 229.183 337 227.75 336.7 C 226.55 336.433 225.3 336.317 224 336.35 C 223.633 336.35 223.283 336.35 222.95 336.35 C 222.45 336.383 221.983 336.433 221.55 336.5 C 219.617 336.733 217.833 337.317 216.2 338.25 C 215.367 338.717 214.583 339.283 213.85 339.95 C 213.617 340.15 213.383 340.383 213.15 340.65 C 212.85 340.95 212.55 341.3 212.25 341.7 M 216.2 342.25 C 217.167 341.417 218.25 340.783 219.45 340.35 C 220.583 339.917 221.8 339.667 223.1 339.6 C 223.4 339.6 223.7 339.6 224 339.6 C 224.2 339.6 224.4 339.6 224.6 339.6 C 226 339.633 227.3 339.867 228.5 340.3 C 229.133 340.533 229.75 340.833 230.35 341.2 C 230.383 341.233 230.433 341.267 230.5 341.3 C 230.967 341.567 231.4 341.883 231.8 342.25 C 232.367 342.683 232.9 343.217 233.4 343.85 C 234.9 345.617 235.833 347.667 236.2 350 C 236.3 350.633 236.367 351.3 236.4 352 C 236.333 353.733 236.017 355.317 235.45 356.75 C 234.95 357.95 234.267 359.067 233.4 360.1 C 233.3 360.2 233.217 360.317 233.15 360.45 C 232.717 360.917 232.267 361.333 231.8 361.7 C 231.233 362.167 230.65 362.583 230.05 362.95 C 228.25 363.917 226.233 364.383 224 364.35 C 221.233 364.417 218.85 363.7 216.85 362.2 C 216.65 362.067 216.45 361.917 216.25 361.75 L 216.2 361.7 C 215.633 361.267 215.1 360.733 214.6 360.1 C 212.667 357.867 211.667 355.167 211.6 352 C 211.667 348.8 212.667 346.083 214.6 343.85 C 215.1 343.217 215.633 342.683 216.2 342.25 Z" />
    </g>
    <path fill="#ab733b" stroke="none"
      d="M 30.689 18.331 C 30.656 17.631 30.589 16.965 30.489 16.331 L 26.739 19.431 L 29.739 23.081 C 30.306 21.648 30.623 20.065 30.689 18.331 M 18.289 5.931 C 17.989 5.931 17.689 5.931 17.389 5.931 L 16.939 10.381 L 22.339 10.931 L 22.789 6.631 C 21.589 6.198 20.289 5.965 18.889 5.931 C 18.689 5.931 18.489 5.931 18.289 5.931 M 21.589 22.431 L 19.239 14.981 L 11.789 17.331 L 14.189 24.781 L 21.589 22.431 Z" />
    <path fill="#65421e" stroke="none"
      d="M 13.739 6.681 C 12.539 7.115 11.456 7.748 10.489 8.581 C 9.923 9.015 9.389 9.548 8.889 10.181 C 6.956 12.415 5.956 15.131 5.889 18.331 C 5.956 21.498 6.956 24.198 8.889 26.431 C 9.389 27.065 9.923 27.598 10.489 28.031 L 10.539 28.081 C 10.739 28.248 10.939 28.398 11.139 28.531 C 13.139 30.031 15.523 30.748 18.289 30.681 C 20.523 30.715 22.539 30.248 24.339 29.281 C 24.939 28.915 25.523 28.498 26.089 28.031 C 26.556 27.665 27.006 27.248 27.439 26.781 C 27.506 26.648 27.589 26.531 27.689 26.431 C 28.556 25.398 29.239 24.281 29.739 23.081 L 26.739 19.431 L 30.489 16.331 C 30.123 13.998 29.189 11.948 27.689 10.181 C 27.189 9.548 26.656 9.015 26.089 8.581 C 25.689 8.215 25.256 7.898 24.789 7.631 C 24.723 7.598 24.673 7.565 24.639 7.531 C 24.039 7.165 23.423 6.865 22.789 6.631 L 22.339 10.931 L 16.939 10.381 L 17.389 5.931 C 16.089 5.998 14.873 6.248 13.739 6.681 M 19.239 14.981 L 21.589 22.431 L 14.189 24.781 L 11.789 17.331 L 19.239 14.981 Z" />
  </g>
</svg>