<!-- RED TOWER -->
<svg xmlns="http://www.w3.org/2000/svg" xmlns:xlink="http://www.w3.org/1999/xlink" version="1.1" width="100"
  height="100" preserveAspectRatio="none" x="0" y="0">
  <defs>
    <g id="Layer0_27134_FILL">
      <path fill="#E74C3C" stroke="none"
        d="M 41.9328 88.704 L 54.8352 88.704 L 61.2864 75.8016 L 41.9328 88.704 M 16.128 88.704 L 29.0304 88.704 L 9.6768 75.8016 L 16.128 88.704 M 41.9328 37.0944 L 29.0304 37.0944 L 3.2256 49.9968 L 3.2256 75.8016 L 9.6768 75.8016 L 61.2864 75.8016 L 67.7376 75.8016 L 67.7376 49.9968 L 41.9328 37.0944 " />

      <path fill="#D24536" stroke="none"
        d=" M 61.2864 75.8016 L 9.6768 75.8016 L 29.0304 88.704 L 41.9328 88.704 L 61.2864 75.8016 M 67.7376 49.9968 L 58.0608 40.32 L 54.8352 37.0944 L 41.9328 37.0944 L 67.7376 49.9968 M 29.0304 37.0944 L 16.128 37.0944 L 12.9024 40.32 L 3.2256 49.9968 L 29.0304 37.0944 " />

      <path fill="#AF392D" stroke="none"
        d=" M 70.9632 49.9968 Q 70.9632 48.5453 70.1568 47.7389 L 58.0608 35.6429 L 58.0608 40.32 L 67.7376 49.9968 L 67.7376 75.8016 L 61.2864 75.8016 L 54.8352 88.704 L 41.9328 88.704 L 29.0304 88.704 L 16.128 88.704 L 9.6768 75.8016 L 3.2256 75.8016 L 3.2256 49.9968 L 12.9024 40.32 L 12.9024 35.6429 L 0.9677 47.7389 Q 0 48.5453 0 49.9968 L 0 75.8016 Q 0 77.2531 0.9677 78.2208 Q 1.9354 79.0272 3.2256 79.0272 L 7.7414 79.0272 L 13.225 90.1555 Q 13.7088 90.9619 14.5152 91.4458 Q 15.3216 91.9296 16.128 91.9296 L 54.8352 91.9296 Q 55.6416 91.9296 56.448 91.4458 Q 57.2544 90.9619 57.7382 90.1555 L 63.383 79.0272 L 67.7376 79.0272 Q 69.0278 79.0272 70.1568 78.2208 Q 70.9632 77.2531 70.9632 75.8016 L 70.9632 49.9968 " />

      <path fill="#ADADAD" stroke="none"
        d=" M 28.224 30.6432 L 28.224 3.2256 L 23.3856 3.2256 L 23.3856 30.6432 L 28.224 30.6432 M 47.5776 3.2256 L 42.7392 3.2256 L 42.7392 30.6432 L 47.5776 30.6432 L 47.5776 3.2256 " />

      <path fill="#9F9F9F" stroke="none"
        d=" M 23.3856 3.2256 L 19.3536 3.2256 L 19.3536 30.6432 L 23.3856 30.6432 L 23.3856 3.2256 M 32.256 3.2256 L 28.224 3.2256 L 28.224 30.6432 L 32.256 30.6432 L 32.256 3.2256 M 42.7392 30.6432 L 42.7392 3.2256 L 38.7072 3.2256 L 38.7072 30.6432 L 42.7392 30.6432 M 51.6096 3.2256 L 47.5776 3.2256 L 47.5776 30.6432 L 51.6096 30.6432 L 51.6096 3.2256 " />

      <path fill="#939393" stroke="none"
        d=" M 47.5776 30.6432 L 42.7392 30.6432 L 38.7072 30.6432 L 32.256 30.6432 L 28.224 30.6432 L 23.3856 30.6432 L 19.3536 30.6432 L 16.128 30.6432 L 16.128 37.0944 L 29.0304 37.0944 L 41.9328 37.0944 L 54.8352 37.0944 L 54.8352 30.6432 L 51.6096 30.6432 L 47.5776 30.6432 " />

      <path fill="#727272" stroke="none"
        d=" M 47.5776 3.2256 L 51.6096 3.2256 L 51.6096 30.6432 L 54.8352 30.6432 L 54.8352 37.0944 L 58.0608 40.32 L 58.0608 35.6429 L 58.0608 30.6432 Q 58.0608 29.1917 57.2544 28.3853 Q 56.1254 27.4176 54.8352 27.4176 L 54.8352 3.2256 Q 54.8352 1.7741 54.0288 0.9677 Q 52.8998 0 51.6096 0 L 38.7072 0 Q 37.417 0 36.4493 0.9677 Q 35.4816 1.7741 35.4816 3.0643 Q 35.4816 1.7741 34.6752 0.9677 Q 33.5462 0 32.256 0 L 19.3536 0 Q 18.0634 0 17.0957 0.9677 Q 16.128 1.7741 16.128 3.2256 L 16.128 27.4176 Q 14.8378 27.4176 13.8701 28.3853 Q 12.9024 29.1917 12.9024 30.6432 L 12.9024 35.6429 L 12.9024 40.32 L 16.128 37.0944 L 16.128 30.6432 L 19.3536 30.6432 L 19.3536 3.2256 L 23.3856 3.2256 L 28.224 3.2256 L 32.256 3.2256 L 32.256 30.6432 L 38.7072 30.6432 L 38.7072 3.2256 L 42.7392 3.2256 L 47.5776 3.2256 " />
    </g>
  </defs>
  <g transform="rotate(90, 40, 55)">
    <use xlink:href="#Layer0_27134_FILL" />
  </g>
</svg>