<?xml version="1.0" encoding="utf-8"?>
<svg viewBox="4.907 13.271 55 40.35" width="55" height="40.35" xmlns="http://www.w3.org/2000/svg">
  <path fill="#2BBF6A" stroke="none" d="M 19.407 45.946 L 29.975 45.946 L 37.66 37.946 L 19.407 45.946 M 8.839 45.946 L 19.407 45.946 L 1.154 37.946 L 8.839 45.946 M 37.66 24.946 L 37.66 20.946 L 33.817 20.946 L 37.66 24.946 M 4.997 20.946 L 1.154 20.946 L 1.154 24.946 L 4.997 20.946 Z" transform="matrix(0, 1, -1, 0, 52.853001, 14.039002)"/>
  <path fill="#939393" stroke="none" d="M 21.418 31.446 L 21.418 35.446 L 46.396 35.446 L 46.396 31.446 L 38.711 31.446 L 36.309 31.446 L 31.505 31.446 L 29.104 31.446 L 21.418 31.446 Z" transform="matrix(0, 1, -1, 0, 67.353004, -0.461001)"/>
  <path fill="#219853" stroke="none" d="M 4.997 20.946 L 4.997 18.946 L 1.154 18.946 C 0.609 18.946 0.16 19.146 -0.191 19.546 C -0.575 19.913 -0.768 20.379 -0.768 20.946 L -0.768 37.946 C -0.768 38.513 -0.575 38.996 -0.191 39.396 L 7.494 47.396 C 7.846 47.763 8.295 47.946 8.839 47.946 L 29.975 47.946 C 30.518 47.946 30.983 47.763 31.368 47.396 L 39.053 39.396 C 39.405 38.996 39.582 38.513 39.582 37.946 L 39.582 20.946 C 39.582 20.379 39.405 19.913 39.053 19.546 C 38.669 19.146 38.204 18.946 37.66 18.946 L 33.817 18.946 L 33.817 20.946 L 37.66 20.946 L 37.66 24.946 L 37.66 37.946 L 29.975 45.946 L 19.407 45.946 L 8.839 45.946 L 1.154 37.946 L 1.154 24.946 L 1.154 20.946 L 4.997 20.946 Z" transform="matrix(0, 1, -1, 0, 52.853004, 14.038997)"/>
  <path fill="#2ECC71" stroke="none" d="M 6.918 20.946 L 4.997 20.946 L 1.154 24.946 L 1.154 37.946 L 19.407 45.946 L 37.66 37.946 L 37.66 24.946 L 33.817 20.946 L 31.896 20.946 L 6.918 20.946 Z" transform="matrix(0, 1, -1, 0, 52.853001, 14.039002)"/>
  <path fill="#9F9F9F" stroke="none" d="M 44.505 22.446 L 42.104 22.446 L 42.104 44.446 L 44.505 44.446 L 44.505 22.446 M 51.711 22.446 L 49.309 22.446 L 49.309 44.446 L 51.711 44.446 L 51.711 22.446 Z" transform="matrix(0, 1, -1, 0, 80.3535, -13.4615)"/>
  <path fill="#ADADAD" stroke="none" d="M 49.309 22.446 L 44.505 22.446 L 44.505 44.446 L 49.309 44.446 L 49.309 22.446 Z" transform="matrix(0, 1, -1, 0, 80.353004, -13.461)"/>
  <path fill="#727272" stroke="none" d="M 43.505 21.446 L 48.309 21.446 L 50.71 21.446 L 50.71 43.446 L 58.396 43.446 L 58.396 47.446 L 60.317 47.446 L 60.317 45.446 L 60.317 43.446 C 60.317 42.88 60.141 42.412 59.789 42.046 C 59.405 41.646 58.94 41.447 58.396 41.447 L 52.632 41.447 L 52.632 21.446 C 52.632 20.879 52.455 20.413 52.103 20.046 C 51.719 19.646 51.254 19.446 50.71 19.446 L 41.104 19.446 C 40.559 19.446 40.11 19.646 39.759 20.046 C 39.374 20.413 39.182 20.879 39.182 21.446 L 39.182 41.447 L 33.418 41.447 C 32.873 41.447 32.425 41.646 32.073 42.046 C 31.689 42.412 31.497 42.88 31.497 43.446 L 31.497 45.446 L 31.497 47.446 L 33.418 47.446 L 33.418 43.446 L 41.104 43.446 L 41.104 21.446 L 43.505 21.446 Z" transform="matrix(0, 1, -1, 0, 79.352997, -12.460998)"/>
</svg>