<svg viewBox="1.032 6.266 27.989 17" width="27.989" height="17" xmlns="http://www.w3.org/2000/svg">
  <g transform="matrix(0, -1, 1, 0, -784.978943, 1263.266235)">
    <g transform="matrix(1, 0, 0, 1, 0, 0)">
      <path fill="#2d77af" stroke="none"
        d=" M 1247.8 786.15 Q 1247.05 786.4 1246.7 787.15 1240.55 799.85 1240 807.1 1240 807.3 1240 807.55 1240.7 813.7 1248.5 814 L 1248.6 814 Q 1256.35 813.75 1257 807.55 1257 807.35 1257 807.15 1256.5 799.85 1250.35 787.15 1250 786.4 1249.3 786.1 1248.55 785.9 1247.8 786.15 M 1255.05 807.3 Q 1254.4 811.85 1248.5 812.05 1242.65 811.75 1242 807.3 1242.55 800.25 1248.55 788 1254.5 800.3 1255.05 807.3 Z" />
      <path fill="#1849c6" stroke="none"
        d=" M 1248.5 812.05 Q 1254.4 811.85 1255.05 807.3 1254.5 800.3 1248.55 788 1242.55 800.25 1242 807.3 1242.65 811.75 1248.5 812.05 M 1252.8 808.45 Q 1252.35 810.45 1248.45 810.6 1244.6 810.45 1244.2 808.45 1244.55 805.35 1248.5 799.85 1252.45 805.35 1252.8 808.45 Z" />
      <path fill="#3492c1" stroke="none"
        d=" M 1248.45 810.6 Q 1252.35 810.45 1252.8 808.45 1252.45 805.35 1248.5 799.85 1244.55 805.35 1244.2 808.45 1244.6 810.45 1248.45 810.6 M 1250.2 809.65 Q 1249.6 810.2 1248.7 810.15 1247.85 810.2 1247.2 809.65 1246.5 809.15 1246.55 808.45 1246.55 807.7 1247.2 807.25 1247.8 806.75 1248.75 806.75 1249.6 806.75 1250.25 807.25 1250.9 807.7 1250.9 808.45 1250.9 809.15 1250.2 809.65 Z" />
      <path fill="#FFFFFF" stroke="none"
        d=" M 1248.7 810.15 Q 1249.6 810.2 1250.2 809.65 1250.9 809.15 1250.9 808.45 1250.9 807.7 1250.25 807.25 1249.6 806.75 1248.75 806.75 1247.8 806.75 1247.2 807.25 1246.55 807.7 1246.55 808.45 1246.5 809.15 1247.2 809.65 1247.85 810.2 1248.7 810.15 Z" />
    </g>
  </g>
</svg>