<?xml version="1.0" encoding="utf-8"?>
<svg viewBox="-1.508 -1.237 66.67 67.472" width="66.67px" height="67.472px" xmlns="http://www.w3.org/2000/svg">
  <g transform="matrix(1.020213, 0, 0, 1.035834, -1.042222, -0.675213)" style="">
    <g style="" transform="matrix(0.996496, 0.007363, 0, 0.999303, -0.001264, -0.233849)">
      <g transform="matrix(0.529733, 0, 0, 0.53147, 30.838169, 30.016449)" style="">
        <g transform="matrix(1, 0, 0, 1, 0, 0)">
          <path fill="#2CC46C" stroke="none" d=" M 54.95 56.2 Q 53.6 57.75 52.9 59.65 L 57.75 59.3 55.35 55.75 Q 55.15 55.95 54.95 56.2 M 61.65 52.3 L 64 53.15 64 52.1 Q 62.8 52.05 61.65 52.3 Z"/>
          <path fill="#31D978" stroke="none" d=" M 61.65 52.3 Q 62.8 52.05 64 52.1 L 64 49 Q 61.05 48.95 58.6 49.85 57.5 50.25 56.5 50.8 55.75 51.25 55.05 51.8 54.3 52.4 53.6 53.1 53.05 53.6 52.6 54.15 50.4 56.7 49.55 59.9 49.05 61.8 49 64 L 52.1 64 Q 52.15 61.65 52.9 59.65 53.6 57.75 54.95 56.2 55.15 55.95 55.35 55.75 55.65 55.4 56 55.1 56.25 54.85 56.5 54.65 58.25 53.15 60.45 52.55 61.05 52.35 61.65 52.3 Z"/>
          <path fill="#2ECC71" stroke="none" d=" M 64 53.15 L 61.65 52.3 Q 61.05 52.35 60.45 52.55 58.25 53.15 56.5 54.65 56.25 54.85 56 55.1 55.65 55.4 55.35 55.75 L 57.75 59.3 52.9 59.65 Q 52.15 61.65 52.1 64 L 64 64 64 53.15 Z"/>
          <path fill="#B17940" stroke="none" d=" M 64 46.7 Q 59.85 46.6 56.5 48.2 53.3 49.7 50.85 52.65 48.1 55.85 47.2 60.05 46.75 61.9 46.7 64 L 49 64 Q 49.05 61.8 49.55 59.9 50.4 56.7 52.6 54.15 53.05 53.6 53.6 53.1 54.3 52.4 55.05 51.8 55.75 51.25 56.5 50.8 57.5 50.25 58.6 49.85 61.05 48.95 64 49 L 64 46.7 Z"/>
          <path fill="#BB8044" stroke="none" d="M 64 46.7 L 64 0 L 0 0 L -0.063 64.468 L 46.7 64 C 46.733 62.6 46.9 61.283 47.2 60.05 C 47.8 57.25 49.017 54.783 50.85 52.65 C 52.483 50.683 54.367 49.2 56.5 48.2 C 58.733 47.133 61.233 46.633 64 46.7 Z"/>
        </g>
      </g>
      <path stroke="none" d="M 14.646 7.397 C 12.723 8.12 11.025 9.192 9.552 10.613 C 7.9 12.155 6.803 13.938 6.262 15.961 C 5.991 16.853 5.841 17.804 5.811 18.816 L 7.884 18.816 C 7.914 17.756 8.08 16.769 8.38 15.853 C 8.891 14.311 9.807 12.926 11.13 11.697 C 11.401 11.432 11.686 11.179 11.987 10.938 C 12.408 10.577 12.858 10.264 13.339 9.999 C 13.76 9.734 14.195 9.493 14.646 9.276 C 15.247 9.011 15.879 8.783 16.539 8.59 C 18.012 8.156 19.428 7.717 21.127 7.491 L 21.408 6.313 C 18.913 6.265 16.659 6.626 14.646 7.397 Z" style="fill: rgb(49, 217, 120);"/>
      <path fill="#2ECC71" stroke="none" d="M 21.342 -0.275 L -0.361 -0.132 L -0.311 18.374 L 5.811 18.816 C 5.841 17.803 5.991 16.851 6.262 15.958 C 6.803 13.932 7.9 12.148 9.552 10.604 C 11.025 9.181 12.723 8.108 14.646 7.385 C 16.659 6.613 18.913 6.251 21.408 6.299 L 21.342 -0.275 Z" style=""/>
      <path fill="#BB8044" stroke="none" d="M 32.311 20.117 C 32.121 19.421 31.982 18.509 31.707 17.813 L 7.668 17.977 L 7.445 64.165 L 31.608 64.165 C 31.16 63.157 30.832 62.134 30.626 61.101 C 30.264 59.226 30.316 57.281 30.781 55.262 C 30.988 54.397 31.264 53.52 31.609 52.63 C 32.213 51.309 32.592 49.939 32.749 48.521 C 32.956 46.623 32.757 44.677 32.154 42.682 C 32.016 42.226 31.869 41.768 31.714 41.312 C 31.679 41.24 31.645 41.167 31.61 41.096 C 31.386 40.616 31.196 40.123 31.041 39.619 C 30.92 39.257 30.826 38.909 30.757 38.573 C 30.085 35.713 30.37 32.709 31.611 29.561 C 32.232 28.192 32.62 26.786 32.776 25.343 C 32.862 24.383 32.853 23.41 32.751 22.425 C 32.665 21.656 32.518 20.886 32.311 20.117 Z" style="" transform="matrix(-1.00001, 0.001498, -0.001583, -0.999987, 40.344859, 82.161305)"/>
    </g>
    <g transform="matrix(0.901558, 0, 0, 0.709035, -36.291901, -162.695724)" style="">
      <g transform="matrix(1, 0, 0, 1.019322, 0, -4.947703)" style="">
        <path fill="#BB8044" stroke="none" d="M 63.771 241.683 C 62.938 241.65 62.331 242.761 61.598 242.894 C 61.165 242.961 60.09 243.078 59.723 243.211 L 57.844 244.042 L 55.176 246.196 C 54.943 246.396 54.299 246.887 54.099 247.12 C 53.966 247.253 53.019 247.968 52.886 248.135 C 51.986 249.168 51.615 250.383 51.148 251.65 C 50.648 252.983 49.783 254.396 49.75 255.963 L 64 256 L 63.771 241.683 Z"/>
        <path fill="#C48647" stroke="none" d=" M 56.5 246.65 Q 56.25 246.85 56 247.1 L 60.1 247.5 60.45 244.55 Q 58.25 245.15 56.5 246.65 Z"/>
        <path stroke="none" d="M 58.474 241.688 C 57.741 241.955 57.065 242.143 56.398 242.51 C 55.898 242.81 55.445 243.069 54.978 243.436 C 54.445 243.803 54.041 244.182 53.574 244.682 C 53.241 245.015 52.608 245.421 52.308 245.788 C 50.841 247.488 49.807 249.729 49.24 251.862 C 48.907 253.129 48.364 254.598 48.33 256.065 L 50.11 255.582 C 50.143 254.015 51.507 251.541 52.007 250.208 C 52.474 248.941 52.926 248.625 53.826 247.592 C 53.959 247.425 55.217 246.527 55.35 246.394 C 55.55 246.161 55.781 245.883 56.014 245.683 C 56.181 245.516 56.694 245.374 56.861 245.241 C 58.028 244.241 58.468 244.24 59.935 243.84 C 60.302 243.707 61.269 243.219 61.702 243.152 C 62.435 243.019 62.932 241.776 63.765 241.809 L 64.083 239.955 C 62.034 239.942 60.107 241.088 58.474 241.688 Z" style="fill: rgb(177, 121, 64);"/>
      </g>
    </g>
    <g transform="matrix(-0.002403, -0.504225, 0.677612, -0.003228, -22.239355, 32.124283)" style="">
      <g transform="matrix(1, 0, 0, 1, -0.05591, -0.43038)">
        <path fill="#2CC46C" stroke="none" d=" M 57.75 123.3 L 52.25 115.15 49.75 120.35 Q 49.75 122.1 50.25 123.85 L 57.75 123.3 M 54.35 106.05 Q 54.1 107.85 53.35 109.65 L 55.75 111.25 56.15 105.15 54.35 106.05 M 64 117.15 L 64 113.65 61.1 116.05 64 117.15 M 64 96.95 L 57.75 98.2 64 105.25 64 96.95 M 64 84.3 L 64 76.3 63.45 75.7 60.45 85.05 64 84.3 M 50.15 91.45 L 50.15 91.5 Q 50.7 93.8 52.1 96 52.15 96.1 52.2 96.15 L 54.05 90.65 50.15 91.45 M 50.65 83.35 L 52.15 84.35 52.5 79.4 Q 52.3 79.7 52.1 80 51.2 81.7 50.65 83.35 M 54.05 75.55 L 55.15 75.85 54.45 73.05 Q 54.35 74.3 54.05 75.55 M 57.75 67.1 L 59 73.1 63.55 69.05 57.75 67.1 Z"/>
        <path fill="#BB8044" stroke="none" d="M 48.05 66.9 C 47.683 65.933 47.233 64.967 46.7 64 L 0 64 L 0 128 L 46.683 128.128 C 45.816 126.728 45.2 125.183 44.8 123.75 C 44.1 121.15 44.2 118.45 45.1 115.65 C 45.5 114.45 46.033 113.233 46.7 112 C 47.867 110.167 48.6 108.267 48.9 106.3 C 49.3 103.667 48.917 100.967 47.75 98.2 C 47.483 97.567 47.2 96.933 46.9 96.3 C 46.833 96.2 46.767 96.1 46.7 96 C 46.267 95.333 45.9 94.65 45.6 93.95 C 45.367 93.45 45.183 92.967 45.05 92.5 C 43.75 88.533 44.3 84.367 46.7 80 C 47.9 78.1 48.65 76.15 48.95 74.15 C 49.117 72.817 49.1 71.467 48.9 70.1 C 48.733 69.033 48.45 67.967 48.05 66.9 Z"/>
        <path fill="#B17940" stroke="none" d="M 50.2 68.85 C 49.933 67.25 49.533 65.633 49 64 L 46.7 64 C 47.233 64.967 47.683 65.933 48.05 66.9 C 48.45 67.967 48.733 69.033 48.9 70.1 C 49.1 71.467 49.117 72.817 48.95 74.15 C 48.65 76.15 47.9 78.1 46.7 80 C 44.3 84.367 43.75 88.533 45.05 92.5 C 45.183 92.967 45.367 93.45 45.6 93.95 C 45.9 94.65 46.267 95.333 46.7 96 C 46.767 96.1 46.833 96.2 46.9 96.3 C 47.2 96.933 47.483 97.567 47.75 98.2 C 48.917 100.967 44.928 104.288 44.528 106.921 C 44.228 108.888 47.867 110.167 46.7 112 C 46.033 113.233 45.5 114.45 45.1 115.65 C 44.2 118.45 44.1 121.15 44.8 123.75 C 45.2 125.183 48.357 124.461 49.224 125.861 L 49 128 C 48.833 127.567 48.683 127.133 48.55 126.7 C 48.283 125.833 48.083 124.967 47.95 124.1 C 47.383 121.067 47.483 117.917 48.25 114.65 C 48.45 113.783 48.7 112.9 49 112 C 49.7 110.2 49.693 108.304 49.893 106.404 C 50.126 103.904 50.383 101.35 49.75 98.65 C 49.55 97.783 49.3 96.9 49 96 C 48.467 94.667 48.1 93.3 47.9 91.9 C 47.733 90.967 47.633 90.033 47.6 89.1 C 47.567 88.333 47.583 87.55 47.65 86.75 C 47.75 85.15 48.017 83.55 48.45 81.95 C 48.583 81.317 48.767 80.7 49 80.1 C 49 80.067 49 80.033 49 80 C 49.667 78.233 50.1 76.417 50.3 74.55 C 50.5 72.683 50.467 70.783 50.2 68.85 Z"/>
        <path fill="#31D978" stroke="none" d="M 54.45 73.05 C 54.617 70.15 53.814 65.564 51.699 62.646 L 49 64 C 49.533 65.633 49.933 67.25 50.2 68.85 C 50.467 70.783 50.5 72.683 50.3 74.55 C 50.1 76.417 49.667 78.233 49 80 C 49 80.033 49 80.067 49 80.1 C 48.767 80.7 48.583 81.317 48.45 81.95 C 48.017 83.55 47.75 85.15 47.65 86.75 C 47.583 87.55 47.567 88.333 47.6 89.1 C 47.633 90.033 47.733 90.967 47.9 91.9 C 48.1 93.3 48.467 94.667 49 96 C 49.3 96.9 49.55 97.783 49.75 98.65 C 50.383 101.35 49.664 103.782 49.431 106.282 C 49.231 108.182 49.7 110.2 49 112 C 48.7 112.9 48.45 113.783 48.25 114.65 C 47.483 117.917 47.383 121.067 47.95 124.1 C 48.083 124.967 48.283 125.833 48.55 126.7 C 48.683 127.133 48.657 128.004 48.824 128.437 L 52.244 128.452 C 51.377 127.085 50.617 125.25 50.25 123.85 C 49.917 122.683 49.75 121.517 49.75 120.35 C 49.75 118.183 50.25 115.967 51.25 113.7 C 51.517 113.133 51.8 112.583 52.1 112.05 L 52.1 112 C 52.6 111.233 53.017 110.45 53.35 109.65 C 53.85 108.45 54.183 107.25 54.35 106.05 C 54.583 104.183 53.528 102.157 52.995 100.224 C 52.628 98.924 53.017 97.75 52.35 96.45 C 52.283 96.35 52.233 96.25 52.2 96.15 C 52.167 96.117 52.133 96.067 52.1 96 C 51.167 94.533 50.517 93.033 50.15 91.5 L 50.15 91.45 C 49.55 89.083 49.617 86.667 50.35 84.2 C 50.417 83.933 50.517 83.65 50.65 83.35 C 51.017 82.25 51.5 81.133 52.1 80 C 52.233 79.8 52.367 79.6 52.5 79.4 C 53.2 78.133 53.717 76.85 54.05 75.55 C 54.25 74.717 54.383 73.883 54.45 73.05 Z"/>
        <path fill="#2ECC71" stroke="none" d="M 52.1 64 C 53.833 67.133 54.617 70.15 54.45 73.05 L 55.15 75.85 L 54.05 75.55 C 53.717 76.85 53.2 78.133 52.5 79.4 L 52.15 84.35 L 50.65 83.35 C 50.517 83.65 50.417 83.933 50.35 84.2 C 49.617 86.667 49.55 89.083 50.15 91.45 L 54.05 90.65 L 52.2 96.15 C 52.233 96.25 52.283 96.35 52.35 96.45 C 53.017 97.75 52.569 100.615 52.936 101.915 C 53.469 103.848 54.583 104.183 54.35 106.05 L 56.15 105.15 L 55.75 111.25 L 53.35 109.65 C 53.017 110.45 52.6 111.233 52.1 112 L 52.1 112.05 C 51.8 112.583 51.517 113.133 51.25 113.7 C 50.25 115.967 49.75 118.183 49.75 120.35 L 52.25 115.15 L 57.75 123.3 L 50.25 123.85 C 50.617 125.25 50.918 127.64 51.785 129.007 L 63.475 128.899 L 64.018 117.122 L 61.1 116.05 L 64 113.65 L 64 105.25 L 57.75 98.2 L 64 96.95 L 64 84.3 L 60.45 85.05 L 63.45 75.7 L 64 76.3 L 64 64 L 52.1 64 M 59 73.1 L 57.75 67.1 L 63.55 69.05 L 59 73.1 Z"/>
      </g>
    </g>
    <g style="" transform="matrix(1.013669, 0, 0, 0.985706, -0.135681, 0.257898)">
      <g transform="matrix(-0.51743, 0.000775, -0.001092, -0.728706, 32.93922, 111.282127)" style="">
        <g transform="matrix(1, 0, 0, 1, 0, 0)">
          <path fill="#2CC46C" stroke="none" d="M 57.75 123.3 L 52.25 115.15 L 49.75 120.35 C 49.75 121.517 49.917 122.683 50.25 123.85 L 57.75 123.3 M 54.35 106.05 C 54.183 107.25 53.85 108.45 53.35 109.65 L 55.75 111.25 L 56.15 105.15 L 54.35 106.05 M 64 117.15 L 64 113.65 L 61.1 116.05 L 64 117.15 M 64 96.95 L 57.75 98.2 L 64 105.25 L 64 96.95 M 63.618 84.232 L 63.415 75.799 L 63.45 75.7 L 60.45 85.05 L 63.57 84.385 M 50.15 91.45 L 50.15 91.5 C 50.517 93.033 51.167 94.533 52.1 96 C 52.133 96.067 52.167 96.117 52.2 96.15 L 54.05 90.65 L 50.15 91.45 M 50.65 83.35 L 52.15 84.35 L 52.5 79.4 C 52.367 79.6 52.233 79.8 52.1 80 C 51.5 81.133 51.017 82.25 50.65 83.35 M 54.05 75.55 L 55.15 75.85 L 54.45 73.05 C 54.383 73.883 54.25 74.717 54.05 75.55 M 57.75 67.1 L 59 73.1 L 63.55 69.05 L 57.75 67.1 Z"/>
          <path fill="#B17940" stroke="none" d="M 50.2 68.85 C 49.933 67.25 49.557 65.395 49.024 63.762 L 46.438 63.779 C 46.971 64.746 47.683 65.933 48.05 66.9 C 48.45 67.967 48.733 69.033 48.9 70.1 C 49.1 71.467 49.117 72.817 48.95 74.15 C 48.65 76.15 47.9 78.1 46.7 80 C 44.3 84.367 43.75 88.533 45.05 92.5 C 45.183 92.967 45.367 93.45 45.6 93.95 C 45.9 94.65 45.924 95.399 46.357 96.066 C 46.424 96.166 46.583 96.356 46.65 96.456 C 46.95 97.089 47.202 97.611 47.469 98.244 C 48.636 101.011 49.113 103.689 48.713 106.322 C 48.413 108.289 47.867 110.167 46.7 112 C 46.033 113.233 45.5 114.45 45.1 115.65 C 44.2 118.45 44.1 121.15 44.8 123.75 C 45.2 125.183 45.609 126.706 46.476 128.106 L 49 128 C 48.833 127.567 48.683 127.133 48.55 126.7 C 48.283 125.833 48.083 124.967 47.95 124.1 C 47.383 121.067 47.483 117.917 48.25 114.65 C 48.45 113.783 48.7 112.9 49 112 C 49.7 110.2 50.15 108.35 50.35 106.45 C 50.583 103.95 50.383 101.35 49.75 98.65 C 49.55 97.783 49.3 96.9 49 96 C 48.467 94.667 48.1 93.3 47.9 91.9 C 47.733 90.967 47.633 90.033 47.6 89.1 C 47.567 88.333 47.583 87.55 47.65 86.75 C 47.75 85.15 48.017 83.55 48.45 81.95 C 48.583 81.317 48.767 80.7 49 80.1 C 49 80.067 49 80.033 49 80 C 49.667 78.233 50.1 76.417 50.3 74.55 C 50.5 72.683 50.467 70.783 50.2 68.85 Z"/>
          <path fill="#31D978" stroke="none" d="M 54.45 73.05 C 54.617 70.15 53.834 66.912 52.1 63.779 L 48.921 63.749 C 49.454 65.382 49.933 67.25 50.2 68.85 C 50.467 70.783 50.5 72.683 50.3 74.55 C 50.1 76.417 49.667 78.233 49 80 C 49 80.033 49 80.067 49 80.1 C 48.767 80.7 48.583 81.317 48.45 81.95 C 48.017 83.55 47.75 85.15 47.65 86.75 C 47.583 87.55 47.567 88.333 47.6 89.1 C 47.633 90.033 47.733 90.967 47.9 91.9 C 48.1 93.3 48.467 94.667 49 96 C 49.3 96.9 49.55 97.783 49.75 98.65 C 50.383 101.35 50.583 103.95 50.35 106.45 C 50.15 108.35 49.7 110.2 49 112 C 48.7 112.9 48.45 113.783 48.25 114.65 C 47.483 117.917 47.383 121.067 47.95 124.1 C 48.083 124.967 48.283 125.833 48.55 126.7 C 48.683 127.133 48.833 127.567 49 128 L 52.1 128 C 51.233 126.633 50.617 125.25 50.25 123.85 C 49.917 122.683 49.75 121.517 49.75 120.35 C 49.75 118.183 50.25 115.967 51.25 113.7 C 51.517 113.133 51.8 112.583 52.1 112.05 L 52.1 112 C 52.6 111.233 53.017 110.45 53.35 109.65 C 53.85 108.45 54.183 107.25 54.35 106.05 C 54.583 104.183 54.433 102.283 53.9 100.35 C 53.533 99.05 53.017 97.75 52.35 96.45 C 52.283 96.35 52.233 96.25 52.2 96.15 C 52.167 96.117 52.133 96.067 52.1 96 C 51.167 94.533 50.517 93.033 50.15 91.5 L 50.15 91.45 C 49.55 89.083 49.617 86.667 50.35 84.2 C 50.417 83.933 50.517 83.65 50.65 83.35 C 51.017 82.25 51.5 81.133 52.1 80 C 52.233 79.8 52.367 79.6 52.5 79.4 C 53.2 78.133 53.717 76.85 54.05 75.55 C 54.25 74.717 54.383 73.883 54.45 73.05 Z"/>
          <path fill="#2ECC71" stroke="none" d="M 52.1 64 C 53.833 67.133 54.617 70.15 54.45 73.05 L 55.15 75.85 L 54.05 75.55 C 53.717 76.85 53.2 78.133 52.5 79.4 L 52.15 84.35 L 50.65 83.35 C 50.517 83.65 50.417 83.933 50.35 84.2 C 49.617 86.667 49.55 89.083 50.15 91.45 L 54.05 90.65 L 52.2 96.15 C 52.233 96.25 52.283 96.35 52.35 96.45 C 53.017 97.75 53.533 99.05 53.9 100.35 C 54.433 102.283 54.583 104.183 54.35 106.05 L 56.15 105.15 L 55.75 111.25 L 53.35 109.65 C 53.017 110.45 52.6 111.233 52.1 112 L 52.1 112.05 C 51.8 112.583 51.517 113.133 51.25 113.7 C 50.25 115.967 49.75 118.183 49.75 120.35 L 52.25 115.15 L 57.75 123.3 L 50.25 123.85 C 50.617 125.25 51.233 126.633 52.1 128 L 64 128 L 64 117.15 L 61.1 116.05 L 64 113.65 L 64 105.25 L 57.75 98.2 L 64 96.95 L 63.713 84.334 L 60.45 85.05 L 63.45 75.7 L 63.419 76.265 L 63.241 63.814 L 51.838 63.745 M 59 73.1 L 57.75 67.1 L 63.55 69.05 L 59 73.1 Z"/>
        </g>
      </g>
    </g>
    <g style="" transform="matrix(-1.013665, -0.003015, 0.003066, -0.985703, 64.286713, 81.842773)">
      <g transform="matrix(-0.51743, 0.000775, -0.001092, -0.728706, 32.93922, 111.282127)" style="">
        <g transform="matrix(1, 0, 0, 1, 0, 0)">
          <path fill="#2CC46C" stroke="none" d=" M 57.75 123.3 L 52.25 115.15 49.75 120.35 Q 49.75 122.1 50.25 123.85 L 57.75 123.3 M 54.35 106.05 Q 54.1 107.85 53.35 109.65 L 55.75 111.25 56.15 105.15 54.35 106.05 M 64 117.15 L 64 113.65 61.1 116.05 64 117.15 M 64 96.95 L 57.75 98.2 64 105.25 64 96.95 M 64 84.3 L 64 76.3 63.45 75.7 60.45 85.05 64 84.3 M 50.15 91.45 L 50.15 91.5 Q 50.7 93.8 52.1 96 52.15 96.1 52.2 96.15 L 54.05 90.65 50.15 91.45 M 50.65 83.35 L 52.15 84.35 52.5 79.4 Q 52.3 79.7 52.1 80 51.2 81.7 50.65 83.35 M 54.05 75.55 L 55.15 75.85 54.45 73.05 Q 54.35 74.3 54.05 75.55 M 57.75 67.1 L 59 73.1 63.55 69.05 57.75 67.1 Z"/>
          <path fill="#B17940" stroke="none" d="M 50.2 68.85 C 49.933 67.25 49.533 65.633 49 64 L 46.7 64 C 47.233 64.967 47.683 65.933 48.05 66.9 C 48.45 67.967 48.733 69.033 48.9 70.1 C 49.1 71.467 49.117 72.817 48.95 74.15 C 48.65 76.15 47.9 78.1 46.7 80 C 44.3 84.367 43.75 88.533 45.05 92.5 C 45.183 92.967 45.367 93.45 45.6 93.95 C 45.9 94.65 45.924 95.399 46.357 96.066 C 46.424 96.166 46.583 96.356 46.65 96.456 C 46.95 97.089 47.202 97.611 47.469 98.244 C 48.636 101.011 49.113 103.689 48.713 106.322 C 48.413 108.289 47.867 110.167 46.7 112 C 46.033 113.233 45.5 114.45 45.1 115.65 C 44.2 118.45 44.1 121.15 44.8 123.75 C 45.2 125.183 45.609 126.706 46.476 128.106 L 49 128 C 48.833 127.567 48.683 127.133 48.55 126.7 C 48.283 125.833 48.083 124.967 47.95 124.1 C 47.383 121.067 47.483 117.917 48.25 114.65 C 48.45 113.783 48.7 112.9 49 112 C 49.7 110.2 50.15 108.35 50.35 106.45 C 50.583 103.95 50.383 101.35 49.75 98.65 C 49.55 97.783 49.3 96.9 49 96 C 48.467 94.667 48.1 93.3 47.9 91.9 C 47.733 90.967 47.633 90.033 47.6 89.1 C 47.567 88.333 47.583 87.55 47.65 86.75 C 47.75 85.15 48.017 83.55 48.45 81.95 C 48.583 81.317 48.767 80.7 49 80.1 C 49 80.067 49 80.033 49 80 C 49.667 78.233 50.1 76.417 50.3 74.55 C 50.5 72.683 50.467 70.783 50.2 68.85 Z"/>
          <path fill="#31D978" stroke="none" d=" M 54.45 73.05 Q 54.7 68.7 52.1 64 L 49 64 Q 49.8 66.45 50.2 68.85 50.6 71.75 50.3 74.55 50 77.35 49 80 49 80.05 49 80.1 48.65 81 48.45 81.95 47.8 84.35 47.65 86.75 47.55 87.95 47.6 89.1 47.65 90.5 47.9 91.9 48.2 94 49 96 49.45 97.35 49.75 98.65 50.7 102.7 50.35 106.45 50.05 109.3 49 112 48.55 113.35 48.25 114.65 47.1 119.55 47.95 124.1 48.15 125.4 48.55 126.7 48.75 127.35 49 128 L 52.1 128 Q 50.8 125.95 50.25 123.85 49.75 122.1 49.75 120.35 49.75 117.1 51.25 113.7 51.65 112.85 52.1 112.05 L 52.1 112 Q 52.85 110.85 53.35 109.65 54.1 107.85 54.35 106.05 54.7 103.25 53.9 100.35 53.35 98.4 52.35 96.45 52.25 96.3 52.2 96.15 52.15 96.1 52.1 96 50.7 93.8 50.15 91.5 L 50.15 91.45 Q 49.25 87.9 50.35 84.2 50.45 83.8 50.65 83.35 51.2 81.7 52.1 80 52.3 79.7 52.5 79.4 53.55 77.5 54.05 75.55 54.35 74.3 54.45 73.05 Z"/>
          <path fill="#2ECC71" stroke="none" d=" M 52.1 64 Q 54.7 68.7 54.45 73.05 L 55.15 75.85 54.05 75.55 Q 53.55 77.5 52.5 79.4 L 52.15 84.35 50.65 83.35 Q 50.45 83.8 50.35 84.2 49.25 87.9 50.15 91.45 L 54.05 90.65 52.2 96.15 Q 52.25 96.3 52.35 96.45 53.35 98.4 53.9 100.35 54.7 103.25 54.35 106.05 L 56.15 105.15 55.75 111.25 53.35 109.65 Q 52.85 110.85 52.1 112 L 52.1 112.05 Q 51.65 112.85 51.25 113.7 49.75 117.1 49.75 120.35 L 52.25 115.15 57.75 123.3 50.25 123.85 Q 50.8 125.95 52.1 128 L 64 128 64 117.15 61.1 116.05 64 113.65 64 105.25 57.75 98.2 64 96.95 64 84.3 60.45 85.05 63.45 75.7 64 76.3 64 64 52.1 64 M 59 73.1 L 57.75 67.1 63.55 69.05 59 73.1 Z"/>
        </g>
      </g>
    </g>
    <path stroke="none" d="M 53.121 7.555 C 51.211 8.277 49.527 9.348 48.07 10.768 C 46.436 12.309 45.356 14.091 44.833 16.112 C 44.569 17.004 44.427 17.954 44.405 18.965 L 46.471 18.965 C 46.493 17.906 46.651 16.92 46.942 16.004 C 47.44 14.464 48.342 13.08 49.651 11.851 C 49.919 11.587 50.201 11.334 50.499 11.093 C 50.916 10.732 51.362 10.42 51.839 10.155 C 52.256 9.89 52.688 9.649 53.136 9.432 C 53.733 9.167 54.361 8.94 55.017 8.747 C 56.482 8.313 57.889 7.874 59.581 7.649 L 59.851 6.471 C 57.365 6.423 55.121 6.784 53.121 7.555 Z" style="fill: rgb(49, 217, 120);" transform="matrix(-0.007556, 0.977873, -1.022569, -0.007556, 65.524755, -38.16259)"/>
    <path fill="#2ECC71" stroke="none" d="M 66.142 0.624 L 51.115 0.76 L 45.47 18.855 L 50.965 19.261 C 50.987 18.248 51.128 17.297 51.39 16.405 C 51.911 14.38 52.984 12.597 54.609 11.054 C 56.057 9.633 57.732 8.56 59.632 7.838 C 61.621 7.066 63.852 6.705 66.325 6.753 L 66.142 0.624 Z" style="" transform="matrix(-0.007556, 0.977873, -1.022569, -0.007556, 65.87488, -44.490181)"/>
    <g transform="matrix(0, 0.881634, -0.725058, 0, 231.199768, -36.034454)" style="">
      <g transform="matrix(1, 0, 0, 1.019322, 0, -4.947703)" style="">
        <path fill="#BB8044" stroke="none" d="M 63.771 241.683 C 62.938 241.65 62.331 242.761 61.598 242.894 C 61.165 242.961 60.09 243.078 59.723 243.211 L 57.844 244.042 L 55.176 246.196 C 54.943 246.396 54.299 246.887 54.099 247.12 C 53.966 247.253 53.019 247.968 52.886 248.135 C 51.986 249.168 51.615 250.383 51.148 251.65 C 50.648 252.983 49.783 254.396 49.75 255.963 L 64 256 L 63.771 241.683 Z"/>
        <path fill="#C48647" stroke="none" d=" M 56.5 246.65 Q 56.25 246.85 56 247.1 L 60.1 247.5 60.45 244.55 Q 58.25 245.15 56.5 246.65 Z"/>
        <path stroke="none" d="M 58.474 241.688 C 57.741 241.955 57.065 242.143 56.398 242.51 C 55.898 242.81 55.445 243.069 54.978 243.436 C 54.445 243.803 54.041 244.182 53.574 244.682 C 53.241 245.015 52.608 245.421 52.308 245.788 C 50.841 247.488 49.807 249.729 49.24 251.862 C 48.907 253.129 48.364 254.598 48.33 256.065 L 50.11 255.582 C 50.143 254.015 51.507 251.541 52.007 250.208 C 52.474 248.941 52.926 248.625 53.826 247.592 C 53.959 247.425 55.217 246.527 55.35 246.394 C 55.55 246.161 55.781 245.883 56.014 245.683 C 56.181 245.516 56.694 245.374 56.861 245.241 C 58.028 244.241 58.468 244.24 59.935 243.84 C 60.302 243.707 61.269 243.219 61.702 243.152 C 62.435 243.019 62.932 241.776 63.765 241.809 L 64.083 239.955 C 62.034 239.942 60.107 241.088 58.474 241.688 Z" style="fill: rgb(177, 121, 64);"/>
      </g>
    </g>
  </g>
</svg>