<?xml version="1.0" encoding="utf-8"?>
<svg viewBox="1.801 3.162 43.545 38" width="43.545" height="38" xmlns="http://www.w3.org/2000/svg">
  <g transform="matrix(0, 1, -0.946622, 0, 538.536011, -1225.838379)" style="">
    <g transform="matrix(1, 0, 0, 1, 0, 0)">
      <path fill="#727272" stroke="none"
        d=" M 1267 531 Q 1267 530.15 1266.45 529.6 1265.85 529 1265 529 L 1259 529 1259 523 Q 1259 522.15 1258.45 521.6 1257.85 521 1257 521 L 1252 521 Q 1251.15 521 1250.6 521.6 1250 522.15 1250 523 L 1250 529 1246 529 1246 523 Q 1246 522.15 1245.45 521.6 1244.85 521 1244 521 L 1239 521 Q 1238.15 521 1237.6 521.6 1237 522.15 1237 523 L 1237 529 1231 529 Q 1230.15 529 1229.6 529.6 1229 530.15 1229 531 L 1229 549 Q 1229 549.85 1229.6 550.45 L 1237 557.85 1237 565 Q 1237 565.85 1237.6 566.45 1238.15 567 1239 567 L 1257 567 Q 1257.85 567 1258.45 566.45 1259 565.85 1259 565 L 1259 557.85 1266.45 550.45 Q 1267 549.85 1267 549 L 1267 531 M 1257 531 L 1265 531 1265 539 1265 547 1265 549 1257 557 1257 565 1253.4 565 1249.8 565 1246.2 565 1242.6 565 1239 565 1239 557 1231 549 1231 547 1231 539 1231 531 1239 531 1239 523 1244 523 1244 531 1252 531 1252 523 1257 523 1257 531 Z" />
      <path fill="#939393" stroke="none"
        d=" M 1265 539 L 1231 539 1231 547 1265 547 1265 539 M 1253.4 557 L 1253.4 565 1257 565 1257 557 1253.4 557 M 1249.8 557 L 1246.2 557 1246.2 565 1249.8 565 1249.8 557 M 1239 557 L 1239 565 1242.6 565 1242.6 557 1239 557 M 1239 531 L 1244 531 1244 523 1239 523 1239 531 M 1257 531 L 1257 523 1252 523 1252 531 1257 531 Z" />
      <path fill="#8C8C8C" stroke="none"
        d=" M 1253.4 565 L 1253.4 557 1249.8 557 1249.8 565 1253.4 565 M 1242.6 557 L 1242.6 565 1246.2 565 1246.2 557 1242.6 557 Z" />
      <path fill="#9F9F9F" stroke="none"
        d=" M 1239 557 L 1242.6 557 1246.2 557 1249.8 557 1253.4 557 1257 557 1265 549 1265 547 1231 547 1231 549 1239 557 M 1265 531 L 1257 531 1252 531 1244 531 1239 531 1231 531 1231 539 1265 539 1265 531 Z" />
    </g>
  </g>
</svg>