<?xml version="1.0" encoding="utf-8"?>
<svg viewBox="-0.478 63.379 64.884 64.837" width="64.884px" height="64.837px" xmlns="http://www.w3.org/2000/svg">
  <g transform="matrix(0.513723, 0, -0.003221, 1.010957, 31.733849, -1.32216)" style="">
    <g transform="matrix(1, 0, 0, 1, 0, 0)">
      <path fill="#2CC46C" stroke="none" d=" M 57.75 123.3 L 52.25 115.15 49.75 120.35 Q 49.75 122.1 50.25 123.85 L 57.75 123.3 M 54.35 106.05 Q 54.1 107.85 53.35 109.65 L 55.75 111.25 56.15 105.15 54.35 106.05 M 64 117.15 L 64 113.65 61.1 116.05 64 117.15 M 64 96.95 L 57.75 98.2 64 105.25 64 96.95 M 64 84.3 L 64 76.3 63.45 75.7 60.45 85.05 64 84.3 M 50.15 91.45 L 50.15 91.5 Q 50.7 93.8 52.1 96 52.15 96.1 52.2 96.15 L 54.05 90.65 50.15 91.45 M 50.65 83.35 L 52.15 84.35 52.5 79.4 Q 52.3 79.7 52.1 80 51.2 81.7 50.65 83.35 M 54.05 75.55 L 55.15 75.85 54.45 73.05 Q 54.35 74.3 54.05 75.55 M 57.75 67.1 L 59 73.1 63.55 69.05 57.75 67.1 Z"/>
      <path fill="#BB8044" stroke="none" d=" M 48.05 66.9 Q 47.5 65.45 46.7 64 L 0 64 0 128 46.7 128 Q 45.4 125.9 44.8 123.75 43.75 119.85 45.1 115.65 45.7 113.85 46.7 112 48.45 109.25 48.9 106.3 49.5 102.35 47.75 98.2 47.35 97.25 46.9 96.3 46.8 96.15 46.7 96 46.05 95 45.6 93.95 45.25 93.2 45.05 92.5 43.1 86.55 46.7 80 48.5 77.15 48.95 74.15 49.2 72.15 48.9 70.1 48.65 68.5 48.05 66.9 Z"/>
      <path fill="#B17940" stroke="none" d=" M 50.2 68.85 Q 49.8 66.45 49 64 L 46.7 64 Q 47.5 65.45 48.05 66.9 48.65 68.5 48.9 70.1 49.2 72.15 48.95 74.15 48.5 77.15 46.7 80 43.1 86.55 45.05 92.5 45.25 93.2 45.6 93.95 46.05 95 46.7 96 46.8 96.15 46.9 96.3 47.35 97.25 47.75 98.2 49.5 102.35 48.9 106.3 48.45 109.25 46.7 112 45.7 113.85 45.1 115.65 43.75 119.85 44.8 123.75 45.4 125.9 46.7 128 L 49 128 Q 48.75 127.35 48.55 126.7 48.15 125.4 47.95 124.1 47.1 119.55 48.25 114.65 48.55 113.35 49 112 50.05 109.3 50.35 106.45 50.7 102.7 49.75 98.65 49.45 97.35 49 96 48.2 94 47.9 91.9 47.65 90.5 47.6 89.1 47.55 87.95 47.65 86.75 47.8 84.35 48.45 81.95 48.65 81 49 80.1 49 80.05 49 80 50 77.35 50.3 74.55 50.6 71.75 50.2 68.85 Z"/>
      <path fill="#31D978" stroke="none" d=" M 54.45 73.05 Q 54.7 68.7 52.1 64 L 49 64 Q 49.8 66.45 50.2 68.85 50.6 71.75 50.3 74.55 50 77.35 49 80 49 80.05 49 80.1 48.65 81 48.45 81.95 47.8 84.35 47.65 86.75 47.55 87.95 47.6 89.1 47.65 90.5 47.9 91.9 48.2 94 49 96 49.45 97.35 49.75 98.65 50.7 102.7 50.35 106.45 50.05 109.3 49 112 48.55 113.35 48.25 114.65 47.1 119.55 47.95 124.1 48.15 125.4 48.55 126.7 48.75 127.35 49 128 L 52.1 128 Q 50.8 125.95 50.25 123.85 49.75 122.1 49.75 120.35 49.75 117.1 51.25 113.7 51.65 112.85 52.1 112.05 L 52.1 112 Q 52.85 110.85 53.35 109.65 54.1 107.85 54.35 106.05 54.7 103.25 53.9 100.35 53.35 98.4 52.35 96.45 52.25 96.3 52.2 96.15 52.15 96.1 52.1 96 50.7 93.8 50.15 91.5 L 50.15 91.45 Q 49.25 87.9 50.35 84.2 50.45 83.8 50.65 83.35 51.2 81.7 52.1 80 52.3 79.7 52.5 79.4 53.55 77.5 54.05 75.55 54.35 74.3 54.45 73.05 Z"/>
      <path fill="#2ECC71" stroke="none" d=" M 52.1 64 Q 54.7 68.7 54.45 73.05 L 55.15 75.85 54.05 75.55 Q 53.55 77.5 52.5 79.4 L 52.15 84.35 50.65 83.35 Q 50.45 83.8 50.35 84.2 49.25 87.9 50.15 91.45 L 54.05 90.65 52.2 96.15 Q 52.25 96.3 52.35 96.45 53.35 98.4 53.9 100.35 54.7 103.25 54.35 106.05 L 56.15 105.15 55.75 111.25 53.35 109.65 Q 52.85 110.85 52.1 112 L 52.1 112.05 Q 51.65 112.85 51.25 113.7 49.75 117.1 49.75 120.35 L 52.25 115.15 57.75 123.3 50.25 123.85 Q 50.8 125.95 52.1 128 L 64 128 64 117.15 61.1 116.05 64 113.65 64 105.25 57.75 98.2 64 96.95 64 84.3 60.45 85.05 63.45 75.7 64 76.3 64 64 52.1 64 M 59 73.1 L 57.75 67.1 63.55 69.05 59 73.1 Z"/>
    </g>
  </g>
  <g transform="matrix(-0.503663, 0.000755, 0.001709, -1.012189, 31.647042, 192.947557)" style="">
    <g transform="matrix(1, 0, 0, 1, 0, 0)">
      <path fill="#2CC46C" stroke="none" d=" M 57.75 123.3 L 52.25 115.15 49.75 120.35 Q 49.75 122.1 50.25 123.85 L 57.75 123.3 M 54.35 106.05 Q 54.1 107.85 53.35 109.65 L 55.75 111.25 56.15 105.15 54.35 106.05 M 64 117.15 L 64 113.65 61.1 116.05 64 117.15 M 64 96.95 L 57.75 98.2 64 105.25 64 96.95 M 64 84.3 L 64 76.3 63.45 75.7 60.45 85.05 64 84.3 M 50.15 91.45 L 50.15 91.5 Q 50.7 93.8 52.1 96 52.15 96.1 52.2 96.15 L 54.05 90.65 50.15 91.45 M 50.65 83.35 L 52.15 84.35 52.5 79.4 Q 52.3 79.7 52.1 80 51.2 81.7 50.65 83.35 M 54.05 75.55 L 55.15 75.85 54.45 73.05 Q 54.35 74.3 54.05 75.55 M 57.75 67.1 L 59 73.1 63.55 69.05 57.75 67.1 Z"/>
      <path fill="#BB8044" stroke="none" d=" M 48.05 66.9 Q 47.5 65.45 46.7 64 L 0 64 0 128 46.7 128 Q 45.4 125.9 44.8 123.75 43.75 119.85 45.1 115.65 45.7 113.85 46.7 112 48.45 109.25 48.9 106.3 49.5 102.35 47.75 98.2 47.35 97.25 46.9 96.3 46.8 96.15 46.7 96 46.05 95 45.6 93.95 45.25 93.2 45.05 92.5 43.1 86.55 46.7 80 48.5 77.15 48.95 74.15 49.2 72.15 48.9 70.1 48.65 68.5 48.05 66.9 Z"/>
      <path fill="#B17940" stroke="none" d=" M 50.2 68.85 Q 49.8 66.45 49 64 L 46.7 64 Q 47.5 65.45 48.05 66.9 48.65 68.5 48.9 70.1 49.2 72.15 48.95 74.15 48.5 77.15 46.7 80 43.1 86.55 45.05 92.5 45.25 93.2 45.6 93.95 46.05 95 46.7 96 46.8 96.15 46.9 96.3 47.35 97.25 47.75 98.2 49.5 102.35 48.9 106.3 48.45 109.25 46.7 112 45.7 113.85 45.1 115.65 43.75 119.85 44.8 123.75 45.4 125.9 46.7 128 L 49 128 Q 48.75 127.35 48.55 126.7 48.15 125.4 47.95 124.1 47.1 119.55 48.25 114.65 48.55 113.35 49 112 50.05 109.3 50.35 106.45 50.7 102.7 49.75 98.65 49.45 97.35 49 96 48.2 94 47.9 91.9 47.65 90.5 47.6 89.1 47.55 87.95 47.65 86.75 47.8 84.35 48.45 81.95 48.65 81 49 80.1 49 80.05 49 80 50 77.35 50.3 74.55 50.6 71.75 50.2 68.85 Z"/>
      <path fill="#31D978" stroke="none" d=" M 54.45 73.05 Q 54.7 68.7 52.1 64 L 49 64 Q 49.8 66.45 50.2 68.85 50.6 71.75 50.3 74.55 50 77.35 49 80 49 80.05 49 80.1 48.65 81 48.45 81.95 47.8 84.35 47.65 86.75 47.55 87.95 47.6 89.1 47.65 90.5 47.9 91.9 48.2 94 49 96 49.45 97.35 49.75 98.65 50.7 102.7 50.35 106.45 50.05 109.3 49 112 48.55 113.35 48.25 114.65 47.1 119.55 47.95 124.1 48.15 125.4 48.55 126.7 48.75 127.35 49 128 L 52.1 128 Q 50.8 125.95 50.25 123.85 49.75 122.1 49.75 120.35 49.75 117.1 51.25 113.7 51.65 112.85 52.1 112.05 L 52.1 112 Q 52.85 110.85 53.35 109.65 54.1 107.85 54.35 106.05 54.7 103.25 53.9 100.35 53.35 98.4 52.35 96.45 52.25 96.3 52.2 96.15 52.15 96.1 52.1 96 50.7 93.8 50.15 91.5 L 50.15 91.45 Q 49.25 87.9 50.35 84.2 50.45 83.8 50.65 83.35 51.2 81.7 52.1 80 52.3 79.7 52.5 79.4 53.55 77.5 54.05 75.55 54.35 74.3 54.45 73.05 Z"/>
      <path fill="#2ECC71" stroke="none" d=" M 52.1 64 Q 54.7 68.7 54.45 73.05 L 55.15 75.85 54.05 75.55 Q 53.55 77.5 52.5 79.4 L 52.15 84.35 50.65 83.35 Q 50.45 83.8 50.35 84.2 49.25 87.9 50.15 91.45 L 54.05 90.65 52.2 96.15 Q 52.25 96.3 52.35 96.45 53.35 98.4 53.9 100.35 54.7 103.25 54.35 106.05 L 56.15 105.15 55.75 111.25 53.35 109.65 Q 52.85 110.85 52.1 112 L 52.1 112.05 Q 51.65 112.85 51.25 113.7 49.75 117.1 49.75 120.35 L 52.25 115.15 57.75 123.3 50.25 123.85 Q 50.8 125.95 52.1 128 L 64 128 64 117.15 61.1 116.05 64 113.65 64 105.25 57.75 98.2 64 96.95 64 84.3 60.45 85.05 63.45 75.7 64 76.3 64 64 52.1 64 M 59 73.1 L 57.75 67.1 63.55 69.05 59 73.1 Z"/>
    </g>
  </g>
</svg>