<?xml version="1.0" encoding="utf-8"?>
<svg viewBox="0.1 -0.086 64 64" width="64" height="64" xmlns="http://www.w3.org/2000/svg">
  <g transform="matrix(1, 0, 0, 1, -1215.900391, -384.085724)">
    <g transform="matrix(1, 0, 0, 1, 0, 0)">
      <path fill="#2CC46C" stroke="none" d=" M 1247.25 446.75 L 1248.35 448 1255.85 448 1256.9 444.8 1247.25 446.75 M 1216 433.65 L 1216 437.15 1222.25 439.55 1220.65 429.8 1216 433.65 M 1219.45 416.25 L 1216 416.95 1216 425.2 1216.3 425.55 1219.45 416.25 M 1216 396.35 L 1216 404.3 1222 403 1216 396.35 M 1273.75 418.2 L 1280 425.25 1280 416.95 1273.75 418.2 M 1280 437.15 L 1280 433.65 1277.1 436.05 1280 437.15 M 1280 404.3 L 1280 396.3 1279.45 395.7 1276.45 405.05 1280 404.3 M 1248.35 384 L 1253.75 390.1 1255.85 384 1248.35 384 M 1231 397.65 L 1237.5 405 1240.65 395.7 1231 397.65 M 1241.9 438.15 L 1232.25 440.1 1238.8 447.45 1241.9 438.15 M 1254.15 422.55 L 1253.85 432.4 1262.5 427.8 1254.15 422.55 M 1245.3 424.35 L 1251.35 424.65 1248.6 419.2 1245.3 424.35 M 1247.35 432.4 L 1243.95 437.5 1250.05 437.85 1247.35 432.4 M 1230.45 441.55 L 1224.65 439.6 1225.9 445.6 1230.45 441.55 M 1227.7 428.5 L 1229.65 422.7 1223.65 423.95 1227.7 428.5 M 1232.15 421.85 L 1232.9 431.65 1241 426.1 1232.15 421.85 M 1224.75 407.6 L 1224.4 417.45 1233.05 412.85 1224.75 407.6 M 1227.3 404.15 L 1229.9 398.6 1223.75 399.2 1227.3 404.15 M 1249.5 416.6 L 1244.25 408.25 1239.65 416.95 1249.5 416.6 M 1249.55 396.9 L 1254.45 405.4 1259.35 396.9 1249.55 396.9 M 1246.35 399.2 L 1243 404.3 1249.1 404.65 1246.35 399.2 M 1266.65 427.85 L 1271.75 431.25 1272.15 425.15 1266.65 427.85 M 1268.25 435.15 L 1263.95 444 1273.75 443.3 1268.25 435.15 M 1259.5 441.05 L 1259.85 434.95 1254.35 437.7 1259.5 441.05 M 1263.1 401.05 L 1268.15 404.35 1268.55 398.25 1263.1 401.05 M 1256.7 416.6 L 1257.1 410.5 1251.6 413.25 1256.7 416.6 M 1266.9 419.95 L 1270.05 410.65 1260.4 412.6 1266.9 419.95 M 1273.75 387.1 L 1275 393.1 1279.55 389.05 1273.75 387.1 M 1271.15 395.85 L 1268.7 386.35 1261.7 393.25 1271.15 395.85 M 1230.15 385.7 L 1220.35 385.7 1225.25 394.2 1230.15 385.7 M 1240.45 388.45 L 1234.65 386.5 1235.9 392.5 1240.45 388.45 Z"/>
      <path fill="#2ECC71" stroke="none" d=" M 1248.35 384 L 1216 384 1216 396.35 1222 403 1216 404.3 1216 416.95 1219.45 416.25 1216.3 425.55 1216 425.2 1216 433.65 1220.65 429.8 1222.25 439.55 1216 437.15 1216 448 1248.35 448 1247.25 446.75 1256.9 444.8 1255.85 448 1280 448 1280 437.15 1277.1 436.05 1280 433.65 1280 425.25 1273.75 418.2 1280 416.95 1280 404.3 1276.45 405.05 1279.45 395.7 1280 396.3 1280 384 1255.85 384 1253.75 390.1 1248.35 384 M 1234.65 386.5 L 1240.45 388.45 1235.9 392.5 1234.65 386.5 M 1220.35 385.7 L 1230.15 385.7 1225.25 394.2 1220.35 385.7 M 1268.7 386.35 L 1271.15 395.85 1261.7 393.25 1268.7 386.35 M 1275 393.1 L 1273.75 387.1 1279.55 389.05 1275 393.1 M 1270.05 410.65 L 1266.9 419.95 1260.4 412.6 1270.05 410.65 M 1257.1 410.5 L 1256.7 416.6 1251.6 413.25 1257.1 410.5 M 1268.15 404.35 L 1263.1 401.05 1268.55 398.25 1268.15 404.35 M 1259.85 434.95 L 1259.5 441.05 1254.35 437.7 1259.85 434.95 M 1263.95 444 L 1268.25 435.15 1273.75 443.3 1263.95 444 M 1271.75 431.25 L 1266.65 427.85 1272.15 425.15 1271.75 431.25 M 1243 404.3 L 1246.35 399.2 1249.1 404.65 1243 404.3 M 1254.45 405.4 L 1249.55 396.9 1259.35 396.9 1254.45 405.4 M 1244.25 408.25 L 1249.5 416.6 1239.65 416.95 1244.25 408.25 M 1229.9 398.6 L 1227.3 404.15 1223.75 399.2 1229.9 398.6 M 1224.4 417.45 L 1224.75 407.6 1233.05 412.85 1224.4 417.45 M 1232.9 431.65 L 1232.15 421.85 1241 426.1 1232.9 431.65 M 1229.65 422.7 L 1227.7 428.5 1223.65 423.95 1229.65 422.7 M 1224.65 439.6 L 1230.45 441.55 1225.9 445.6 1224.65 439.6 M 1243.95 437.5 L 1247.35 432.4 1250.05 437.85 1243.95 437.5 M 1251.35 424.65 L 1245.3 424.35 1248.6 419.2 1251.35 424.65 M 1253.85 432.4 L 1254.15 422.55 1262.5 427.8 1253.85 432.4 M 1232.25 440.1 L 1241.9 438.15 1238.8 447.45 1232.25 440.1 M 1237.5 405 L 1231 397.65 1240.65 395.7 1237.5 405 Z"/>
    </g>
  </g>
</svg>