<?xml version="1.0" encoding="utf-8"?>
<svg viewBox="-0.146 -0.445 64 64" width="64" height="64" xmlns="http://www.w3.org/2000/svg">
  <g transform="matrix(1, 0, 0, 1, -1344.145996, -384.445343)">
    <g transform="matrix(1, 0, 0, 1, 0, 0)">
      <path fill="#859FA1" stroke="none" d=" M 1346.05 418.15 L 1344 418.4 1344 423.9 1346.7 423.55 1346.05 418.15 M 1392.8 444.2 L 1383.25 443.1 1382.7 448 1392.4 448 1392.8 444.2 M 1408 418.4 L 1404.65 418.8 1405.3 424.2 1408 423.9 1408 418.4 M 1408 393.25 L 1400.5 395.05 1402.25 402.6 1408 401.3 1408 393.25 M 1391.7 389.75 L 1392.35 384 1382.7 384 1382.15 388.65 1391.7 389.75 M 1344.05 393.25 L 1344 393.25 1344 401.3 1345.85 400.85 1344.05 393.25 M 1371.2 441.75 L 1373.4 432 1363.65 429.8 1361.5 439.6 1371.2 441.75 M 1352.6 430.95 L 1354.15 435.55 1358.75 434 1357.2 429.35 1352.6 430.95 M 1351.75 423.55 L 1356.15 426.75 1359.3 422.35 1354.95 419.2 1351.75 423.55 M 1351.15 440.1 L 1345.8 440.95 1346.65 446.3 1352 445.45 1351.15 440.1 M 1362.15 415.7 L 1364.7 405.8 1354.85 403.25 1352.3 413.1 1362.15 415.7 M 1376.95 412.65 L 1369.5 415 1371.9 422.45 1379.3 420.1 1376.95 412.65 M 1404.7 434.05 L 1399.25 433.5 1398.7 438.95 1404.1 439.5 1404.7 434.05 M 1383.3 435.1 L 1381.05 430.1 1376.15 432.35 1378.35 437.3 1383.3 435.1 M 1389.1 435.65 L 1396.5 433.3 1394.15 425.9 1386.75 428.25 1389.1 435.65 M 1397.2 414.2 L 1395.25 419.3 1400.4 421.3 1402.3 416.15 1397.2 414.2 M 1394.2 404.05 L 1390.45 408 1394.4 411.75 1398.15 407.8 1394.2 404.05 M 1380.05 408.6 L 1380.6 403.2 1375.2 402.65 1374.65 408.05 1380.05 408.6 M 1392.15 417.85 L 1388.65 413.65 1384.45 417.1 1387.9 421.3 1392.15 417.85 M 1390.4 395.65 L 1386 392.45 1382.8 396.9 1387.25 400.05 1390.4 395.65 M 1370.2 393.25 L 1363.3 386.9 1356.95 393.8 1363.85 400.15 1370.2 393.25 M 1347 387.9 L 1349.25 392.85 1354.2 390.6 1352 385.7 1347 387.9 Z"/>
      <path fill="#89A4A6" stroke="none" d=" M 1344 384 L 1344 393.25 1344.05 393.25 1345.85 400.85 1344 401.3 1344 418.4 1346.05 418.15 1346.7 423.55 1344 423.9 1344 448 1382.7 448 1383.25 443.1 1392.8 444.2 1392.4 448 1408 448 1408 423.9 1405.3 424.2 1404.65 418.8 1408 418.4 1408 401.3 1402.25 402.6 1400.5 395.05 1408 393.25 1408 384 1392.35 384 1391.7 389.75 1382.15 388.65 1382.7 384 1344 384 M 1349.25 392.85 L 1347 387.9 1352 385.7 1354.2 390.6 1349.25 392.85 M 1363.3 386.9 L 1370.2 393.25 1363.85 400.15 1356.95 393.8 1363.3 386.9 M 1386 392.45 L 1390.4 395.65 1387.25 400.05 1382.8 396.9 1386 392.45 M 1388.65 413.65 L 1392.15 417.85 1387.9 421.3 1384.45 417.1 1388.65 413.65 M 1380.6 403.2 L 1380.05 408.6 1374.65 408.05 1375.2 402.65 1380.6 403.2 M 1390.45 408 L 1394.2 404.05 1398.15 407.8 1394.4 411.75 1390.45 408 M 1395.25 419.3 L 1397.2 414.2 1402.3 416.15 1400.4 421.3 1395.25 419.3 M 1396.5 433.3 L 1389.1 435.65 1386.75 428.25 1394.15 425.9 1396.5 433.3 M 1381.05 430.1 L 1383.3 435.1 1378.35 437.3 1376.15 432.35 1381.05 430.1 M 1399.25 433.5 L 1404.7 434.05 1404.1 439.5 1398.7 438.95 1399.25 433.5 M 1369.5 415 L 1376.95 412.65 1379.3 420.1 1371.9 422.45 1369.5 415 M 1364.7 405.8 L 1362.15 415.7 1352.3 413.1 1354.85 403.25 1364.7 405.8 M 1345.8 440.95 L 1351.15 440.1 1352 445.45 1346.65 446.3 1345.8 440.95 M 1356.15 426.75 L 1351.75 423.55 1354.95 419.2 1359.3 422.35 1356.15 426.75 M 1354.15 435.55 L 1352.6 430.95 1357.2 429.35 1358.75 434 1354.15 435.55 M 1373.4 432 L 1371.2 441.75 1361.5 439.6 1363.65 429.8 1373.4 432 Z"/>
    </g>
  </g>
</svg>