<?xml version="1.0" encoding="utf-8"?>
<svg viewBox="-0.162 -0.001 64 64" width="64" height="64" xmlns="http://www.w3.org/2000/svg">
  <g transform="matrix(1, 0, 0, 1, -1408.162231, -384.000854)">
    <g transform="matrix(1, 0, 0, 1, 0, 0)">
      <path fill="#ECDCB8" stroke="none" d=" M 1472 425.25 Q 1467.5 431.75 1464.75 440.5 1463.75 444.5 1462.2 448 L 1472 448 1472 425.25 M 1462.2 384 Q 1461.25 386.2 1460.05 388.2 1451.75 402.65 1432.6 408.55 L 1432.65 408.6 Q 1416.9 412.5 1408 425.25 L 1408 448 1418.25 448 Q 1427.2 428.3 1447.6 423.25 L 1447.55 423.2 Q 1463.65 418.2 1472 407.15 L 1472 384 1462.2 384 M 1460.3 410.75 L 1458.4 415.9 1453.25 413.9 1455.2 408.8 1460.3 410.75 M 1459.25 401.2 L 1463 397.25 1466.95 401 1463.2 404.95 1459.25 401.2 M 1443.05 414.2 L 1447.25 410.75 1450.75 414.95 1446.5 418.4 1443.05 414.2 M 1421.2 429.35 L 1422.75 434 1418.15 435.55 1416.6 430.95 1421.2 429.35 M 1421.4 422.35 L 1418.25 426.75 1413.85 423.55 1417.05 419.2 1421.4 422.35 M 1418.25 384 L 1408 384 1408 407.15 Q 1409.5 405.15 1410.75 403 1413.8 397.75 1415.45 391.3 1416.65 387.45 1418.25 384 Z"/>
      <path fill="#E0D1AF" stroke="none" d=" M 1464.75 440.5 Q 1467.5 431.75 1472 425.25 L 1472 407.15 Q 1463.65 418.2 1447.55 423.2 L 1447.6 423.25 Q 1427.2 428.3 1418.25 448 L 1462.2 448 Q 1463.75 444.5 1464.75 440.5 M 1462.55 434.05 L 1461.95 439.5 1456.55 438.95 1457.1 433.5 1462.55 434.05 M 1439.85 438.3 L 1442.1 443.3 1437.15 445.5 1434.95 440.55 1439.85 438.3 M 1418.25 384 Q 1416.65 387.45 1415.45 391.3 1413.8 397.75 1410.75 403 1409.5 405.15 1408 407.15 L 1408 425.25 Q 1416.9 412.5 1432.65 408.6 L 1432.6 408.55 Q 1451.75 402.65 1460.05 388.2 1461.25 386.2 1462.2 384 L 1418.25 384 M 1437.6 392.7 L 1432.25 393.55 1431.4 388.2 1436.75 387.35 1437.6 392.7 M 1454.15 390.55 L 1451 394.95 1446.55 391.8 1449.75 387.35 1454.15 390.55 M 1422.75 402.25 L 1423.3 396.85 1428.7 397.4 1428.15 402.8 1422.75 402.25 Z"/>
      <path fill="#D7C9A8" stroke="none" d=" M 1442.1 443.3 L 1439.85 438.3 1434.95 440.55 1437.15 445.5 1442.1 443.3 M 1461.95 439.5 L 1462.55 434.05 1457.1 433.5 1456.55 438.95 1461.95 439.5 M 1423.3 396.85 L 1422.75 402.25 1428.15 402.8 1428.7 397.4 1423.3 396.85 M 1451 394.95 L 1454.15 390.55 1449.75 387.35 1446.55 391.8 1451 394.95 M 1432.25 393.55 L 1437.6 392.7 1436.75 387.35 1431.4 388.2 1432.25 393.55 Z"/>
      <path fill="#F3E2BE" stroke="none" d=" M 1418.25 426.75 L 1421.4 422.35 1417.05 419.2 1413.85 423.55 1418.25 426.75 M 1422.75 434 L 1421.2 429.35 1416.6 430.95 1418.15 435.55 1422.75 434 M 1447.25 410.75 L 1443.05 414.2 1446.5 418.4 1450.75 414.95 1447.25 410.75 M 1463 397.25 L 1459.25 401.2 1463.2 404.95 1466.95 401 1463 397.25 M 1458.4 415.9 L 1460.3 410.75 1455.2 408.8 1453.25 413.9 1458.4 415.9 Z"/>
    </g>
  </g>
</svg>