<?xml version="1.0" encoding="utf-8"?>
<svg viewBox="-0.212 -0.305 64 64" width="64" height="64" xmlns="http://www.w3.org/2000/svg">
  <g transform="matrix(1, 0, 0, 1, -1280.211792, -384.305298)">
    <g transform="matrix(1, 0, 0, 1, 0, 0)">
      <path fill="#C48647" stroke="none" d=" M 1282.05 418.15 L 1280 418.4 1280 423.9 1282.7 423.55 1282.05 418.15 M 1341.3 424.2 L 1344 423.9 1344 418.4 1340.65 418.8 1341.3 424.2 M 1288 445.45 L 1287.15 440.1 1281.8 440.95 1282.65 446.3 1288 445.45 M 1293.2 429.35 L 1288.6 430.95 1290.15 435.55 1294.75 434 1293.2 429.35 M 1292.15 426.75 L 1295.3 422.35 1290.95 419.2 1287.75 423.55 1292.15 426.75 M 1283 387.9 L 1285.25 392.85 1290.2 390.6 1288 385.7 1283 387.9 M 1312.15 432.35 L 1314.35 437.3 1319.3 435.1 1317.05 430.1 1312.15 432.35 M 1310.65 408.05 L 1316.05 408.6 1316.6 403.2 1311.2 402.65 1310.65 408.05 M 1333.2 414.2 L 1331.25 419.3 1336.4 421.3 1338.3 416.15 1333.2 414.2 M 1326.4 395.65 L 1322 392.45 1318.8 396.9 1323.25 400.05 1326.4 395.65 Z"/>
      <path fill="#B17940" stroke="none" d=" M 1280.05 393.25 L 1280 393.25 1280 401.3 1281.85 400.85 1280.05 393.25 M 1328.8 444.2 L 1319.25 443.1 1318.7 448 1328.4 448 1328.8 444.2 M 1344 393.25 L 1336.5 395.05 1338.25 402.6 1344 401.3 1344 393.25 M 1327.7 389.75 L 1328.35 384 1318.7 384 1318.15 388.65 1327.7 389.75 M 1322.75 428.25 L 1325.1 435.65 1332.5 433.3 1330.15 425.9 1322.75 428.25 M 1307.2 441.75 L 1309.4 432 1299.65 429.8 1297.5 439.6 1307.2 441.75 M 1315.3 420.1 L 1312.95 412.65 1305.5 415 1307.9 422.45 1315.3 420.1 M 1298.15 415.7 L 1300.7 405.8 1290.85 403.25 1288.3 413.1 1298.15 415.7 M 1324.65 413.65 L 1320.45 417.1 1323.9 421.3 1328.15 417.85 1324.65 413.65 M 1330.4 411.75 L 1334.15 407.8 1330.2 404.05 1326.45 408 1330.4 411.75 M 1340.1 439.5 L 1340.7 434.05 1335.25 433.5 1334.7 438.95 1340.1 439.5 M 1306.2 393.25 L 1299.3 386.9 1292.95 393.8 1299.85 400.15 1306.2 393.25 Z"/>
      <path fill="#BB8044" stroke="none" d=" M 1328.35 384 L 1327.7 389.75 1318.15 388.65 1318.7 384 1280 384 1280 393.25 1280.05 393.25 1281.85 400.85 1280 401.3 1280 418.4 1282.05 418.15 1282.7 423.55 1280 423.9 1280 448 1318.7 448 1319.25 443.1 1328.8 444.2 1328.4 448 1344 448 1344 423.9 1341.3 424.2 1340.65 418.8 1344 418.4 1344 401.3 1338.25 402.6 1336.5 395.05 1344 393.25 1344 384 1328.35 384 M 1322 392.45 L 1326.4 395.65 1323.25 400.05 1318.8 396.9 1322 392.45 M 1299.3 386.9 L 1306.2 393.25 1299.85 400.15 1292.95 393.8 1299.3 386.9 M 1340.7 434.05 L 1340.1 439.5 1334.7 438.95 1335.25 433.5 1340.7 434.05 M 1334.15 407.8 L 1330.4 411.75 1326.45 408 1330.2 404.05 1334.15 407.8 M 1331.25 419.3 L 1333.2 414.2 1338.3 416.15 1336.4 421.3 1331.25 419.3 M 1320.45 417.1 L 1324.65 413.65 1328.15 417.85 1323.9 421.3 1320.45 417.1 M 1316.05 408.6 L 1310.65 408.05 1311.2 402.65 1316.6 403.2 1316.05 408.6 M 1300.7 405.8 L 1298.15 415.7 1288.3 413.1 1290.85 403.25 1300.7 405.8 M 1312.95 412.65 L 1315.3 420.1 1307.9 422.45 1305.5 415 1312.95 412.65 M 1309.4 432 L 1307.2 441.75 1297.5 439.6 1299.65 429.8 1309.4 432 M 1314.35 437.3 L 1312.15 432.35 1317.05 430.1 1319.3 435.1 1314.35 437.3 M 1325.1 435.65 L 1322.75 428.25 1330.15 425.9 1332.5 433.3 1325.1 435.65 M 1285.25 392.85 L 1283 387.9 1288 385.7 1290.2 390.6 1285.25 392.85 M 1295.3 422.35 L 1292.15 426.75 1287.75 423.55 1290.95 419.2 1295.3 422.35 M 1288.6 430.95 L 1293.2 429.35 1294.75 434 1290.15 435.55 1288.6 430.95 M 1287.15 440.1 L 1288 445.45 1282.65 446.3 1281.8 440.95 1287.15 440.1 Z"/>
    </g>
  </g>
</svg>