<svg xmlns="http://www.w3.org/2000/svg" viewBox="0 0 47.98 47.74" >
  <path stroke="red" d="M47.69,40.38,47,39.67a5,5,0,0,0-3.72-1.44L21.93,16.82l-2.29-2.31a.93.93,0,0,0-.6-.29l-3.83-.42a1,1,0,0,0-.82.28,1,1,0,0,0-.28.82l.42,3.83a1,1,0,0,0,.28.6l1.59,1.6-4.64,4.64L7.11,20.91C-.14,13.67,2.67,3.64,2.67,3.54a1.46,1.46,0,0,1,1-1c.1,0,10.06-3.3,17.69,4.34l4.56,4.56L23.29,14a1,1,0,0,0,1.42,1.42L28,12.14a1,1,0,0,0,0-1.41L22.76,5.45C14.78-2.52,3.21.6,3.11.6A3.5,3.5,0,0,0,.74,3c0,.12-3.56,10.79,5,19.31l5.36,5.36a1,1,0,0,0,1.42,0l5.34-5.35L35.27,39.87a1,1,0,1,0,1.42-1.41L22.29,24l2-2L41.05,38.84a5.36,5.36,0,0,0-1.14.83,5,5,0,0,0,0,7.07l.71.71a1,1,0,0,0,1.41,0l5.66-5.66A1,1,0,0,0,47.69,40.38ZM20.88,22.6l-2.36-2.37-2-2.06-.25-2.25,2.24.25,4.41,4.43ZM41.32,45.33a3,3,0,0,1,4.25-4.25Z" />
</svg>